<?xml version="1.0" encoding="UTF-8"?>
<svg version="1.1" xmlns="http://www.w3.org/2000/svg" width="512" height="512">
<path d="M0 0 C10.88830641 9.24007654 20.64275399 19.07436489 29.4296875 30.35546875 C30.42552276 31.59916535 31.42163453 32.84264058 32.41796875 34.0859375 C70.58539896 82.25870347 93.53213935 145.80384578 93.59765625 207.390625 C93.60098465 208.50876083 93.60431305 209.62689667 93.60774231 210.77891541 C93.61277484 213.13279819 93.61515178 215.48668802 93.61499023 217.84057617 C93.61716668 221.38407591 93.63533481 224.92725867 93.65429688 228.47070312 C93.68484783 241.24200831 93.25220692 253.70728726 91.4296875 266.35546875 C86.5625 261.62890625 86.5625 261.62890625 85.3671875 259.16796875 C84.11502385 256.74711902 82.91526328 256.428688 80.4296875 255.35546875 C75.0374079 253.66706645 69.5645575 252.45819814 63.95703125 251.77734375 C54.03596345 250.53217695 48.31258436 249.08026502 41.4296875 241.35546875 C40.1726273 240.33820919 38.90243133 239.33687879 37.6171875 238.35546875 C32.96510898 234.41577348 29.88302252 228.33887155 29.19140625 222.26171875 C29.03728794 217.26504088 29.57318418 213.45718735 31.4296875 208.79296875 C33.95152235 202.43902186 34.7109766 197.36371273 31.9921875 190.98046875 C31.4765625 190.11421875 30.9609375 189.24796875 30.4296875 188.35546875 C30.0996875 187.36546875 29.7696875 186.37546875 29.4296875 185.35546875 C23.1384266 182.2098383 15.91335012 182.43533673 9.25 184.1953125 C-3.59457081 188.76945822 -16.60040789 197.16826789 -24.71920776 208.30249023 C-27.74779336 211.94119618 -31.01089996 213.09120434 -35.44189453 214.4765625 C-36.22211472 214.73780411 -37.0023349 214.99904572 -37.80619812 215.26820374 C-40.39107264 216.12850971 -42.98411241 216.96066343 -45.578125 217.79296875 C-47.41908409 218.39935673 -49.25947712 219.00746562 -51.09933472 219.6171875 C-55.97302896 221.22708949 -60.85412155 222.81330014 -65.73712158 224.39471436 C-70.53251919 225.95215248 -75.32062301 227.53164767 -80.109375 229.109375 C-90.61627285 232.56613988 -101.13369136 235.99010601 -111.6534462 239.40750885 C-117.57773297 241.33285808 -123.50060669 243.2625491 -129.42370605 245.19154739 C-134.03101881 246.69196234 -138.63847331 248.19193519 -143.24649048 249.69018555 C-166.29978386 254.82731157 -166.29978386 254.82731157 -184.85131836 265.31201172 C-185.82837601 268.0889124 -185.56018807 269.59795824 -184.5703125 272.35546875 C-183.03217829 274.38443087 -183.03217829 274.38443087 -180.5703125 275.35546875 C-175.85109132 274.91267845 -171.60528527 273.86298607 -167.12402344 272.3527832 C-165.88040039 271.93708069 -164.63677734 271.52137817 -163.35546875 271.09307861 C-162.00518155 270.63504802 -160.65492193 270.17693611 -159.3046875 269.71875 C-157.88463165 269.24192186 -156.46437972 268.76567731 -155.04394531 268.28997803 C-152.03041206 267.27964037 -149.01809456 266.2657893 -146.00671387 265.24905396 C-141.29857643 263.65964966 -136.58766211 262.07860688 -131.87597656 260.49975586 C-131.09581051 260.23832574 -130.31564445 259.97689562 -129.51183701 259.70754337 C-127.94003652 259.18088755 -126.36822234 258.65427261 -124.79639435 258.1276989 C-122.44675363 257.34032668 -120.09735109 256.55224709 -117.74798584 255.76405334 C-105.29212905 251.58690759 -92.81696897 247.47155863 -80.3203125 243.41796875 C-79.46807098 243.14133392 -78.61582947 242.8646991 -77.73776245 242.5796814 C-64.02805933 238.13205971 -50.30708431 233.71879157 -36.5703125 229.35546875 C-36.58602295 229.99460205 -36.6017334 230.63373535 -36.61791992 231.29223633 C-36.6811388 234.25071998 -36.7195743 237.20906079 -36.7578125 240.16796875 C-36.78294922 241.17279297 -36.80808594 242.17761719 -36.83398438 243.21289062 C-36.91828245 251.95179141 -35.64741603 259.917376 -31.3203125 267.60546875 C-29.25467264 271.45974696 -29.31753985 274.09604174 -30.5703125 278.35546875 C-31.7578125 280.29296875 -31.7578125 280.29296875 -33.5703125 281.35546875 C-36.7578125 281.54296875 -36.7578125 281.54296875 -39.5703125 281.35546875 C-40.91646044 278.66317287 -40.79641803 276.36171909 -40.9453125 273.35546875 C-41.64894518 263.84067461 -43.14074783 255.8729641 -50.5703125 249.35546875 C-54.71974162 246.77609389 -59.81892449 246.38082506 -64.5703125 247.35546875 C-66.7037324 248.74279663 -68.38213878 250.22712112 -70.16015625 252.04296875 C-71.5703125 253.35546875 -71.5703125 253.35546875 -73.5703125 253.35546875 C-73.82683594 253.9278125 -74.08335937 254.50015625 -74.34765625 255.08984375 C-75.69330866 257.58338495 -77.279159 259.46346915 -79.1328125 261.60546875 C-81.72787445 264.73824624 -83.89196073 267.81778378 -85.74609375 271.42578125 C-86.113396 272.13573242 -86.48069824 272.84568359 -86.85913086 273.57714844 C-87.56589856 274.97829276 -88.2467539 276.39291272 -88.89672852 277.82128906 C-90.96250862 281.90389003 -92.7498911 283.74672141 -97.07617188 285.35766602 C-97.96992523 285.69254028 -98.86367859 286.02741455 -99.78451538 286.37243652 C-104.2160633 287.93620956 -108.66549332 289.42523634 -113.140625 290.859375 C-115.17831983 291.51899419 -117.21599823 292.1786641 -119.25366211 292.83837891 C-120.8331514 293.34779022 -120.8331514 293.34779022 -122.44454956 293.86749268 C-127.93213373 295.64079205 -133.41276258 297.43538439 -138.89453125 299.2265625 C-145.74113204 301.46262808 -152.59113053 303.68633402 -159.45294189 305.87528992 C-162.45891783 306.83912462 -165.45845197 307.82177927 -168.45623779 308.8107605 C-169.81495974 309.25429653 -171.17651082 309.68926508 -172.54083252 310.11526489 C-174.40013347 310.69676287 -176.24930177 311.31037435 -178.09765625 311.92578125 C-179.11593506 312.25336426 -180.13421387 312.58094727 -181.18334961 312.91845703 C-183.84201888 314.21841753 -183.84201888 314.21841753 -184.97485352 317.33154297 C-185.838515 320.35960948 -185.838515 320.35960948 -184.5703125 323.16796875 C-181.91787817 326.0690688 -180.46374987 326.09130731 -176.5703125 326.35546875 C-173.9463294 325.74259336 -171.57705144 325.06197878 -169.05200195 324.17407227 C-167.96063934 323.80853241 -167.96063934 323.80853241 -166.847229 323.43560791 C-164.45492432 322.63101321 -162.0695131 321.80769064 -159.68359375 320.984375 C-158.0182798 320.42113024 -156.35251603 319.85921382 -154.68632507 319.29856873 C-150.30889572 317.82233375 -145.93686313 316.33074805 -141.56604004 314.83508301 C-134.56097482 312.44078543 -127.5481276 310.06940397 -120.53496361 307.69895744 C-118.08535843 306.86844923 -115.63816384 306.03113021 -113.1912384 305.19276428 C-111.69435559 304.68378186 -110.19742519 304.17493938 -108.70043945 303.66625977 C-107.67879951 303.3132505 -107.67879951 303.3132505 -106.63652039 302.95310974 C-103.80704495 301.99657958 -101.5817419 301.35546875 -98.5703125 301.35546875 C-98.58602295 301.90783203 -98.6017334 302.46019531 -98.61791992 303.02929688 C-99.0354805 320.04180726 -97.67165794 334.48866788 -90.875 350.24609375 C-89.85787703 352.67013532 -89.15813396 354.8189883 -88.5703125 357.35546875 C-114.51612311 366.19785348 -140.64245532 374.4585122 -166.79818726 382.65538025 C-174.25753306 384.99413304 -181.71105234 387.3504329 -189.15946007 389.72379494 C-194.80638549 391.52290166 -200.45606979 393.31314507 -206.10776711 395.09720421 C-209.50878429 396.17126604 -212.90821793 397.24984659 -216.30432129 398.33935547 C-220.07992716 399.55042101 -223.8618711 400.74082769 -227.64453125 401.9296875 C-228.76689682 402.2932988 -229.88926239 402.6569101 -231.04563904 403.03153992 C-232.08462845 403.3545961 -233.12361786 403.67765228 -234.1940918 404.01049805 C-235.0925029 404.29595993 -235.990914 404.58142181 -236.91654968 404.87553406 C-240.10457558 405.45209057 -242.44118853 405.15648734 -245.5703125 404.35546875 C-249.30785454 400.84849195 -250.18637665 397.81258464 -250.84375 392.81640625 C-251.11602417 390.88317505 -251.11602417 390.88317505 -251.39379883 388.91088867 C-251.48319733 388.22997162 -251.57259583 387.54905457 -251.66470337 386.84750366 C-252.14512811 383.22297463 -252.68810516 379.60788643 -253.23046875 375.9921875 C-253.33975204 375.25968277 -253.44903534 374.52717804 -253.56163025 373.7724762 C-263.13696362 310.67800183 -290.24790704 245.09107233 -334.5703125 198.35546875 C-335.70125916 197.0271757 -336.82664231 195.69411725 -337.9453125 194.35546875 C-341.50103154 190.23562121 -345.50993459 186.64459922 -349.57177734 183.03515625 C-353.29804268 179.70698086 -354.47255388 178.56767567 -354.8828125 173.48046875 C-355.04169113 170.59873907 -354.81314268 169.65135264 -352.95350647 167.38542175 C-350.0880019 164.94464703 -347.5774259 164.01191013 -344.01342773 162.8059082 C-343.36417328 162.58259827 -342.71491882 162.35928833 -342.04598999 162.12921143 C-339.91060034 161.39783759 -337.76999102 160.68326092 -335.62890625 159.96875 C-334.13930449 159.46222218 -332.65005632 158.95465344 -331.16114807 158.4460907 C-327.24819741 157.11267788 -323.33060195 155.79346749 -319.41186523 154.47717285 C-315.42335458 153.13464025 -311.43942599 151.77865401 -307.45507812 150.42382812 C-279.08383844 140.785104 -279.08383844 140.785104 -273.5703125 141.35546875 C-270.18354161 143.80547322 -268.78332666 145.21939321 -268.0078125 149.35546875 C-268.71691477 153.13734754 -269.90000825 154.59221601 -272.5703125 157.35546875 C-274.96813314 158.50175549 -277.12209825 159.37793625 -279.625 160.1875 C-280.31539368 160.42544785 -281.00578735 160.66339569 -281.71710205 160.90855408 C-283.95509957 161.67650207 -286.19986065 162.422133 -288.4453125 163.16796875 C-289.98350444 163.69194355 -291.52110117 164.21766878 -293.05810547 164.74511719 C-296.12207768 165.79570857 -299.18816702 166.83972051 -302.25585938 167.87939453 C-308.10033778 169.86862965 -313.90038727 171.97679102 -319.6953125 174.10546875 C-320.6116748 174.4403833 -321.52803711 174.77529785 -322.47216797 175.12036133 C-324.50550291 175.86370312 -326.53802356 176.60927195 -328.5703125 177.35546875 C-327.68730469 178.27585938 -326.80429687 179.19625 -325.89453125 180.14453125 C-317.92592752 188.51949135 -310.45020284 197.06455088 -303.5703125 206.35546875 C-303.09384277 206.99677734 -302.61737305 207.63808594 -302.12646484 208.29882812 C-268.09960754 254.44530083 -249.13157224 306.97579721 -236.5703125 362.35546875 C-213.66231248 292.61863125 -217.42923169 218.33183031 -250.5703125 152.35546875 C-261.57436097 131.25363352 -275.17581538 110.96180049 -291.8828125 93.91796875 C-294.85348063 90.57689312 -295.33642103 87.8445539 -295.3046875 83.43359375 C-294.2050483 80.32184879 -292.23948513 79.23683122 -289.5703125 77.35546875 C-286.70223141 76.22144032 -286.70223141 76.22144032 -283.48558044 75.31221008 C-282.25825227 74.95900444 -281.03092409 74.6057988 -279.76640415 74.24188995 C-278.41000329 73.86457603 -277.05354019 73.48748575 -275.69702148 73.1105957 C-274.25640939 72.70090594 -272.8160964 72.29016319 -271.37605953 71.87845612 C-267.43880351 70.75603074 -263.49750693 69.64843944 -259.55538702 68.54323792 C-255.34414392 67.35973593 -251.13685974 66.16231851 -246.92910767 64.96647644 C-238.77998419 62.65278464 -230.6274346 60.35140779 -222.47359347 58.05440396 C-212.14115169 55.14317976 -201.81263365 52.21813081 -191.48413086 49.29296875 C-187.70841942 48.22380101 -183.93267365 47.15475457 -180.15690613 46.08578491 C-179.22192104 45.82107026 -178.28693596 45.5563556 -177.32361799 45.28361928 C-170.6875842 43.40508809 -164.05081059 41.52918504 -157.41377258 39.65420532 C-135.67987566 33.5132374 -113.95837459 27.33140963 -92.25415611 21.08635521 C-88.08802666 19.8877333 -83.92127771 18.69127677 -79.75434875 17.49543762 C-79.08769984 17.30409943 -78.42105093 17.11276124 -77.73420054 16.91562492 C-75.10301174 16.1604419 -72.471816 15.40528312 -69.84057581 14.65027916 C-62.95434576 12.67421447 -56.06940602 10.69387164 -49.18771362 8.70205688 C-43.42537752 7.03437137 -37.65990292 5.37804342 -31.89173508 3.73064613 C-29.81482751 3.13513608 -27.73916863 2.53525037 -25.66490555 1.93059349 C-22.87358187 1.11735709 -20.0783132 0.31948417 -17.28149414 -0.47460938 C-16.47722205 -0.71304912 -15.67294996 -0.95148886 -14.84430599 -1.19715405 C-9.3197091 -2.74057625 -5.06490507 -3.24061556 0 0 Z M-34.9453125 38.73046875 C-38.52208844 43.38610917 -40.07854478 47.2302146 -39.875 53.24609375 C-38.89155692 60.05454581 -34.91430629 64.67116127 -29.6953125 68.8828125 C-23.57017215 73.12762484 -17.54954942 73.74967112 -10.20703125 74.14453125 C-7.5703125 74.35546875 -7.5703125 74.35546875 -4.5703125 75.35546875 C-4.0753125 78.32546875 -4.0753125 78.32546875 -3.5703125 81.35546875 C-5.0703125 82.91796875 -5.0703125 82.91796875 -7.5703125 84.35546875 C-12.29796737 84.27796621 -15.24737191 83.74157082 -19.1953125 81.16796875 C-22.41904677 79.0116989 -22.41904677 79.0116989 -25.8203125 79.79296875 C-29.09425752 81.65316479 -30.28194431 82.81245624 -31.5703125 86.35546875 C-30.96188186 90.08210643 -30.05312411 91.87265714 -27.3828125 94.54296875 C-20.50503776 98.97531247 -13.72404019 101.03494606 -5.5703125 100.35546875 C1.59319039 98.36137309 6.2362644 94.43343616 10.4296875 88.35546875 C12.25737127 82.87241744 12.59327503 76.4249324 10.5234375 70.96484375 C7.27465 65.5085468 3.265184 61.48966735 -2.6953125 59.10546875 C-7.06964274 58.25882419 -11.35509412 57.92749537 -15.80078125 57.69921875 C-18.56461694 57.35617567 -20.28521362 56.9354211 -22.5703125 55.35546875 C-23.3203125 52.23046875 -23.3203125 52.23046875 -23.5703125 49.35546875 C-21.03908462 48.08985481 -19.67957292 48.41353112 -16.8828125 48.73046875 C-15.98820312 48.82328125 -15.09359375 48.91609375 -14.171875 49.01171875 C-11.5703125 49.35546875 -11.5703125 49.35546875 -7.7578125 50.23046875 C-4.41221531 50.67392733 -4.41221531 50.67392733 -1.5703125 48.35546875 C0.72791267 45.46084974 0.72791267 45.46084974 0.6171875 41.79296875 C-0.92106929 37.34012014 -2.37496582 36.41500258 -6.5703125 34.35546875 C-16.25340662 30.79550768 -27.64854772 30.62098925 -34.9453125 38.73046875 Z M-61.5703125 50.35546875 C-62.82869807 52.87223988 -62.77850223 54.76840163 -62.88671875 57.58203125 C-62.94956055 59.12890625 -62.94956055 59.12890625 -63.01367188 60.70703125 C-63.05298828 61.78726563 -63.09230469 62.8675 -63.1328125 63.98046875 C-63.19758789 65.61242187 -63.19758789 65.61242187 -63.26367188 67.27734375 C-63.3699578 69.96992045 -63.47199307 72.66259128 -63.5703125 75.35546875 C-64.00899658 74.63629272 -64.00899658 74.63629272 -64.45654297 73.90258789 C-65.78097508 71.73784275 -67.11302592 69.57788791 -68.4453125 67.41796875 C-68.90550781 66.66322266 -69.36570312 65.90847656 -69.83984375 65.13085938 C-70.50693359 64.05288086 -70.50693359 64.05288086 -71.1875 62.953125 C-71.59597168 62.28804932 -72.00444336 61.62297363 -72.42529297 60.93774414 C-73.49764244 59.19912845 -73.49764244 59.19912845 -75.5703125 58.35546875 C-78.4860816 57.93844753 -78.4860816 57.93844753 -81.5703125 58.35546875 C-83.87306806 60.22256785 -85.24855121 61.71194616 -86.5703125 64.35546875 C-86.72155081 65.87504515 -86.81912943 67.40019377 -86.88671875 68.92578125 C-86.92861328 69.82167969 -86.97050781 70.71757813 -87.01367188 71.640625 C-87.05298828 72.57777344 -87.09230469 73.51492187 -87.1328125 74.48046875 C-87.17599609 75.42535156 -87.21917969 76.37023437 -87.26367188 77.34375 C-87.36990322 79.68083967 -87.47194426 82.01803705 -87.5703125 84.35546875 C-87.94317383 83.79037598 -88.31603516 83.2252832 -88.70019531 82.64306641 C-90.39744088 80.08244856 -92.10864972 77.53146938 -93.8203125 74.98046875 C-94.40683594 74.09101563 -94.99335938 73.2015625 -95.59765625 72.28515625 C-96.17128906 71.434375 -96.74492187 70.58359375 -97.3359375 69.70703125 C-97.85961914 68.92150879 -98.38330078 68.13598633 -98.92285156 67.32666016 C-100.70117655 65.19888957 -101.97732556 64.29426495 -104.5703125 63.35546875 C-107.97923699 63.49460853 -109.87390123 63.77138188 -112.5078125 65.98046875 C-114.0461791 69.41917057 -113.34020246 71.70607476 -112.5703125 75.35546875 C-111.11560351 78.24886309 -111.11560351 78.24886309 -109.140625 80.9453125 C-108.43260742 81.96995605 -107.72458984 82.99459961 -106.99511719 84.05029297 C-106.23618164 85.12037598 -105.47724609 86.19045898 -104.6953125 87.29296875 C-103.91717972 88.40693714 -103.14016786 89.52168931 -102.36425781 90.63720703 C-100.8221322 92.85198763 -99.27379337 95.0622302 -97.72167969 97.27001953 C-95.83641748 99.97382613 -93.99143539 102.69707605 -92.171875 105.4453125 C-91.43686768 106.54854858 -91.43686768 106.54854858 -90.68701172 107.67407227 C-89.80434603 109.00217035 -88.92789941 110.33443245 -88.05908203 111.67163086 C-85.66074466 115.23278358 -83.54284515 117.62434883 -79.5703125 119.35546875 C-76.35714727 118.86784614 -76.35714727 118.86784614 -73.5703125 117.35546875 C-71.40104591 114.10156887 -71.32951201 113.22150918 -71.375 109.46875 C-71.38466797 108.06206055 -71.38466797 108.06206055 -71.39453125 106.62695312 C-71.41128906 105.65048828 -71.42804688 104.67402344 -71.4453125 103.66796875 C-71.45433594 102.67990234 -71.46335937 101.69183594 -71.47265625 100.67382812 C-71.4962282 98.2341311 -71.52913228 95.79492178 -71.5703125 93.35546875 C-70.9103125 93.35546875 -70.2503125 93.35546875 -69.5703125 93.35546875 C-69.18166016 94.41894531 -69.18166016 94.41894531 -68.78515625 95.50390625 C-67.48591543 98.55357119 -65.91992101 101.19027353 -64.1328125 103.98046875 C-63.53597656 104.92148438 -62.93914062 105.8625 -62.32421875 106.83203125 C-60.38567903 109.62111067 -58.79405836 111.78438735 -55.6953125 113.23046875 C-52.57312447 113.41412687 -51.04284667 112.17733603 -48.5703125 110.35546875 C-46.05158057 106.57737085 -46.31023566 103.66572342 -46.3828125 99.29296875 C-46.3921582 98.45113037 -46.40150391 97.60929199 -46.41113281 96.74194336 C-46.4378051 94.78067564 -46.47071894 92.81948745 -46.50830078 90.85839844 C-46.55370433 88.29363421 -46.58864449 85.72999858 -46.61279297 83.16503906 C-46.64954335 79.35120415 -46.70869885 75.53820724 -46.78085327 71.72488403 C-46.80707845 70.19167462 -46.82699512 68.65834383 -46.84048462 67.12496948 C-46.86187201 64.94188821 -46.90852932 62.76065425 -46.9609375 60.578125 C-46.9923584 58.67172241 -46.9923584 58.67172241 -47.02441406 56.72680664 C-47.65736945 52.81782592 -48.81949251 51.14860408 -51.5703125 48.35546875 C-55.42256831 46.30093232 -58.07078432 48.25575184 -61.5703125 50.35546875 Z M-144.2578125 74.54296875 C-145.94874023 74.98092773 -145.94874023 74.98092773 -147.67382812 75.42773438 C-148.75728516 75.72744141 -149.84074219 76.02714844 -150.95703125 76.3359375 C-151.93889404 76.60301514 -152.92075684 76.87009277 -153.93237305 77.14526367 C-157.3297585 78.7038791 -158.73173538 80.09785749 -160.5703125 83.35546875 C-160.48667368 89.24031436 -158.24412125 94.73410643 -156.296875 100.234375 C-155.81025894 101.62981789 -155.81025894 101.62981789 -155.31381226 103.05345154 C-154.62927794 105.01189182 -153.94160582 106.96923785 -153.25097656 108.92553711 C-152.19840042 111.9092156 -151.15704988 114.89663558 -150.1171875 117.88476562 C-149.44857885 119.79320087 -148.77932946 121.70141178 -148.109375 123.609375 C-147.79988922 124.49702042 -147.49040344 125.38466583 -147.17153931 126.29920959 C-144.69660038 134.87410605 -144.69660038 134.87410605 -138.76611328 140.81884766 C-135.09698772 141.43494681 -132.97787998 141.03938269 -129.4375 139.94140625 C-128.30183594 139.59207031 -127.16617188 139.24273437 -125.99609375 138.8828125 C-124.82433594 138.50253906 -123.65257812 138.12226563 -122.4453125 137.73046875 C-121.26582031 137.37339844 -120.08632813 137.01632813 -118.87109375 136.6484375 C-111.37204573 134.39531916 -111.37204573 134.39531916 -105.5703125 129.35546875 C-104.32354244 126.45840168 -104.32354244 126.45840168 -104.5703125 123.35546875 C-106.36018203 120.23188045 -106.36018203 120.23188045 -109.5703125 118.35546875 C-116.80014153 118.22636466 -123.76193487 121.1240645 -130.5703125 123.35546875 C-132.29295744 120.05997409 -133.86477182 117.0242803 -134.5703125 113.35546875 C-133.97863281 113.24589844 -133.38695312 113.13632813 -132.77734375 113.0234375 C-126.69242036 111.80248224 -122.17238877 110.75858316 -118.5703125 105.35546875 C-118.76566258 102.22986755 -119.029019 100.1029693 -120.8828125 97.54296875 C-122.93425598 96.09936038 -124.06178763 95.68103437 -126.5703125 95.35546875 C-130.10480346 96.10574552 -130.10480346 96.10574552 -133.8203125 97.29296875 C-135.08359375 97.67324219 -136.346875 98.05351562 -137.6484375 98.4453125 C-138.61265625 98.74566406 -139.576875 99.04601562 -140.5703125 99.35546875 C-140.9003125 96.38546875 -141.2303125 93.41546875 -141.5703125 90.35546875 C-140.38953125 90.0409375 -139.20875 89.72640625 -137.9921875 89.40234375 C-136.43470189 88.97075135 -134.8774207 88.53842079 -133.3203125 88.10546875 C-132.54300781 87.90050781 -131.76570313 87.69554687 -130.96484375 87.484375 C-126.54251487 86.23705147 -123.40590621 85.20590652 -120.5703125 81.35546875 C-119.96425821 77.719143 -120.09869914 76.07232106 -122.1328125 72.98046875 C-128.55952527 68.69599357 -137.47807075 72.65122105 -144.2578125 74.54296875 Z M-184.9453125 86.91796875 C-187.16708802 90.25063203 -186.82173847 92.38855428 -186.5703125 96.35546875 C-185.6950571 99.66942062 -185.6950571 99.66942062 -184.3828125 102.9453125 C-183.93164062 104.14091797 -183.48046875 105.33652344 -183.015625 106.56835938 C-182.53867188 107.79748047 -182.06171875 109.02660156 -181.5703125 110.29296875 C-181.08748395 111.56144686 -180.6057031 112.83032428 -180.125 114.09960938 C-178.95033631 117.18897487 -177.765195 120.2738795 -176.5703125 123.35546875 C-178.90778662 121.76364629 -181.24500484 120.17145134 -183.58178711 118.57861328 C-185.58412139 117.21471628 -187.58755136 115.85242654 -189.59204102 114.49169922 C-194.20944557 111.35270829 -198.81284412 108.20279491 -203.34765625 104.9453125 C-204.05728516 104.44040283 -204.76691406 103.93549316 -205.49804688 103.4152832 C-206.80005125 102.48575457 -208.0948811 101.54605941 -209.38085938 100.59448242 C-213.4043154 97.73974983 -216.62338666 96.4864343 -221.5703125 96.35546875 C-224.73697917 98.18880208 -224.73697917 98.18880208 -226.5703125 101.35546875 C-226.32190223 107.71693185 -223.85605517 113.20965205 -221.45703125 119.0390625 C-221.04620804 120.05339859 -220.63538483 121.06773468 -220.21211243 122.11280823 C-219.3440881 124.25159904 -218.47227856 126.38885707 -217.59692383 128.5246582 C-216.2650166 131.77538601 -214.94500115 135.03074097 -213.62695312 138.28710938 C-212.77934207 140.37137702 -211.9310568 142.45537065 -211.08203125 144.5390625 C-210.69021164 145.50388046 -210.29839203 146.46869843 -209.8946991 147.4627533 C-206.41377775 157.58725255 -206.41377775 157.58725255 -199.6328125 165.04296875 C-195.83234721 165.43077133 -194.5121776 164.72530453 -191.5703125 162.35546875 C-189.26529074 159.56760266 -189.26529074 159.56760266 -189.78881836 156.57373047 C-190.61573729 153.16840548 -191.73310348 150.10045604 -193.07421875 146.86328125 C-193.56728516 145.66445312 -194.06035156 144.465625 -194.56835938 143.23046875 C-195.08970772 141.98041201 -195.61119381 140.73041271 -196.1328125 139.48046875 C-196.65877714 138.20726823 -197.1841734 136.93383275 -197.70898438 135.66015625 C-198.99052612 132.55623864 -200.27780054 129.45483053 -201.5703125 126.35546875 C-197.35373845 127.95184157 -193.98294249 130.05308748 -190.3828125 132.73046875 C-184.64486778 136.90614821 -178.8334639 140.95672937 -172.9453125 144.91796875 C-172.17550049 145.44245605 -171.40568848 145.96694336 -170.61254883 146.50732422 C-169.88447021 146.99475098 -169.1563916 147.48217773 -168.40625 147.984375 C-167.76220215 148.4182251 -167.1181543 148.8520752 -166.45458984 149.29907227 C-164.45685559 150.41907694 -162.83448904 151.01966282 -160.5703125 151.35546875 C-157.25834049 150.01490865 -155.89065449 148.98193249 -154.25585938 145.78491211 C-153.31035299 141.05502317 -154.56900485 137.98357778 -156.2265625 133.546875 C-156.67557922 132.28120949 -156.67557922 132.28120949 -157.13366699 130.98997498 C-158.0955775 128.29286158 -159.08274661 125.60577944 -160.0703125 122.91796875 C-160.70473745 121.1457587 -161.33756552 119.37297613 -161.96875 117.59960938 C-163.79273023 112.50181393 -165.66946247 107.42504503 -167.5703125 102.35546875 C-167.85648438 101.58708679 -168.14265625 100.81870483 -168.4375 100.02703857 C-169.23024073 97.91165484 -170.03748527 95.8025631 -170.8515625 93.6953125 C-171.30595703 92.51187256 -171.76035156 91.32843262 -172.22851562 90.10913086 C-173.40875536 87.09845499 -173.40875536 87.09845499 -176.5703125 85.35546875 C-180.1475658 84.89879812 -181.90489555 84.91769444 -184.9453125 86.91796875 Z M29.98339844 140.24462891 C28.11756355 140.86843193 28.11756355 140.86843193 26.21403503 141.50483704 C24.86398879 141.96790695 23.51399956 142.43114313 22.1640625 142.89453125 C20.74656802 143.37236429 19.32873891 143.84920566 17.91059875 144.32511902 C14.89857316 145.3379868 11.88878651 146.35715294 8.88064575 147.38150024 C4.13029156 148.99892802 -0.62485107 150.60191653 -5.38110352 152.2019043 C-6.97310455 152.73757737 -8.56509981 153.27326763 -10.15708923 153.80897522 C-10.9409947 154.07274523 -11.72490017 154.33651524 -12.53256035 154.60827827 C-14.89967431 155.40535113 -17.26631847 156.2038041 -19.63282776 157.00267029 C-30.89909757 160.80459219 -42.18982235 164.52277055 -53.5078125 168.16796875 C-67.21062905 172.59108268 -80.87995983 177.11198916 -94.5390625 181.66796875 C-95.39178804 181.95238012 -96.24451359 182.2367915 -97.1230793 182.5298214 C-105.77882734 185.41728773 -114.43349489 188.30797182 -123.08652973 191.20355892 C-126.35301395 192.29636674 -129.619892 193.38799417 -132.88682747 194.47945213 C-134.47955426 195.01192497 -136.07208908 195.54497236 -137.6644268 196.07860756 C-145.76670245 198.79365416 -153.87515797 201.47385339 -162.03564453 204.00927734 C-162.69509976 204.21548171 -163.354555 204.42168608 -164.03399372 204.63413906 C-167.08544204 205.58818227 -170.13931859 206.53058499 -173.20140076 207.45002747 C-174.25456985 207.77742416 -175.30773895 208.10482086 -176.39282227 208.44213867 C-177.30266373 208.71748947 -178.21250519 208.99284027 -179.1499176 209.27653503 C-182.57818118 210.80474399 -184.86824119 212.90452138 -186.5078125 216.29296875 C-186.6006578 219.35686361 -185.35757166 220.92990274 -183.5703125 223.35546875 C-180.2987784 225.53649149 -179.35038384 225.50731701 -175.62914467 224.83833885 C-171.57762056 223.88811091 -167.65471155 222.57291396 -163.71166992 221.2512207 C-162.74423355 220.93218781 -161.77679718 220.61315491 -160.78004456 220.28445435 C-157.57672993 219.22651592 -154.37627908 218.16017655 -151.17578125 217.09375 C-148.91002304 216.34350522 -146.64409462 215.59377433 -144.37800598 214.8445282 C-138.38365374 212.8610003 -132.39170304 210.87031138 -126.40020752 208.87817383 C-120.46813516 206.9072113 -114.53376145 204.94320561 -108.59960938 202.97851562 C-86.35592016 195.61098291 -64.12389322 188.20870227 -41.897192 180.79010391 C-29.78402909 176.74808706 -17.65857554 172.74814557 -5.50491333 168.82928467 C2.14645826 166.35808068 9.78828893 163.85731096 17.4296875 161.35546875 C18.16129089 161.11616638 18.89289429 160.87686401 19.64666748 160.63031006 C24.06060497 159.18438472 28.46607264 157.71508707 32.8671875 156.23046875 C33.90875 155.88846436 34.9503125 155.54645996 36.0234375 155.1940918 C42.5661716 153.05261505 42.5661716 153.05261505 47.4296875 148.35546875 C48.03574179 144.719143 47.90130086 143.07232106 45.8671875 139.98046875 C40.88678764 136.66020218 35.30992624 138.43862153 29.98339844 140.24462891 Z " fill="#FC8703" transform="translate(386.5703125,54.64453125)"/>
<path d="M0 0 C-0.28875 1.258125 -0.5775 2.51625 -0.875 3.8125 C-1.05417969 4.63878906 -1.23335938 5.46507812 -1.41796875 6.31640625 C-1.800001 8.07785696 -2.19795383 9.83594513 -2.61328125 11.58984375 C-4.89531607 22.16171937 -4.58695496 32.53675381 1 42 C1.36480469 42.6290625 1.72960937 43.258125 2.10546875 43.90625 C5.33283786 48.75226884 9.50676631 52.24367946 13.9375 55.9375 C25.1523132 65.29096979 32.16651487 75.23928426 34 90 C34.32272101 95.13043663 34.03582038 99.95037563 33 105 C40.95154736 100.36324161 47.96517962 95.10446114 51 86 C51.09419337 84.21032596 51.12990998 82.41714437 51.125 80.625 C51.12757813 79.68914062 51.13015625 78.75328125 51.1328125 77.7890625 C51.00441441 75.09270253 50.60188709 72.62728491 50 70 C51.32 70 52.64 70 54 70 C63.27991631 79.56482602 66.94773101 93.21441169 67.3125 106.1875 C66.82912514 129.12095148 56.61127462 148.65738639 41 165 C40.45988281 165.61488281 39.91976562 166.22976563 39.36328125 166.86328125 C26.75655875 180.67669256 4.96054736 190.20611397 -13.4934082 191.12402344 C-37.7603177 191.79746915 -60.3814216 188.17723799 -79.3125 171.5625 C-80.89288079 170.06025606 -82.45684661 168.54046028 -84 167 C-84.93779297 166.07960938 -84.93779297 166.07960938 -85.89453125 165.140625 C-98.34601542 151.98646114 -104.43702006 134.19034521 -104.21484375 116.21875 C-102.85482274 95.84316255 -94.83055487 79.29496101 -80.35546875 65.01953125 C-78 63 -78 63 -76 63 C-75.97421875 64.09957031 -75.9484375 65.19914062 -75.921875 66.33203125 C-75.57884878 76.42614951 -75.15282824 85.9127854 -68.5 94.0625 C-63.11042976 98.23941693 -58.70923675 98.78700724 -52 98 C-45.72009076 96.25668135 -41.61764614 93.53287056 -38 88 C-35.00604441 82.15754416 -33.90519497 76.50694736 -35.46875 70.0703125 C-36.8323914 66.02808978 -38.82217453 62.55817271 -41.0625 58.9375 C-45.26851285 52.11186128 -47.17246185 45.7440778 -45.53515625 37.72265625 C-42.25363272 25.431506 -36.09264426 15.68805117 -25.3125 8.875 C-17.58689966 4.46206137 -9.03373455 0 0 0 Z " fill="#FD5902" transform="translate(406,252)"/>
</svg>
